<svg width="36" height="36" viewBox="0 0 36 36" fill="none" xmlns="http://www.w3.org/2000/svg">
<path d="M4.75 17.875H1L17.875 1L34.75 17.875H31M4.75 17.875V31C4.75 31.9946 5.14509 32.9484 5.84835 33.6516C6.55161 34.3549 7.50544 34.75 8.5 34.75H27.25C28.2446 34.75 29.1984 34.3549 29.9016 33.6516C30.6049 32.9484 31 31.9946 31 31V17.875" stroke="black" stroke-opacity="0.5" stroke-width="2" stroke-linecap="round" stroke-linejoin="round"/>
<path d="M12.25 34.75V23.5C12.25 22.5054 12.6451 21.5516 13.3484 20.8484C14.0516 20.1451 15.0054 19.75 16 19.75H19.75C20.7446 19.75 21.6984 20.1451 22.4016 20.8484C23.1049 21.5516 23.5 22.5054 23.5 23.5V34.75" stroke="black" stroke-opacity="0.5" stroke-width="2" stroke-linecap="round" stroke-linejoin="round"/>
</svg>
