<svg width="37" height="30" viewBox="0 0 37 30" fill="none" xmlns="http://www.w3.org/2000/svg">
<path d="M7.75 7.75H14.75" stroke="black" stroke-opacity="0.5" stroke-width="1.5" stroke-linecap="round" stroke-linejoin="round"/>
<path d="M33.7078 9.5H29.1543C26.0305 9.5 23.5 11.8503 23.5 14.75C23.5 17.6497 26.0322 20 29.1525 20H33.7078C33.8548 20 33.9265 20 33.9878 19.9965C34.9328 19.9388 35.6852 19.2405 35.7465 18.3637C35.75 18.3077 35.75 18.2395 35.75 18.1047V11.3953C35.75 11.2605 35.75 11.1923 35.7465 11.1363C35.6835 10.2595 34.9328 9.56125 33.9878 9.5035C33.9283 9.5 33.8548 9.5 33.7078 9.5Z" stroke="black" stroke-opacity="0.5" stroke-width="1.5"/>
<path d="M33.9388 9.5C33.8023 6.224 33.3647 4.215 31.949 2.801C29.8997 0.75 26.5992 0.75 20 0.75H14.75C8.15075 0.75 4.85025 0.75 2.801 2.801C0.75175 4.852 0.75 8.15075 0.75 14.75C0.75 21.3492 0.75 24.6497 2.801 26.699C4.852 28.7482 8.15075 28.75 14.75 28.75H20C26.5992 28.75 29.8997 28.75 31.949 26.699C33.3647 25.285 33.804 23.276 33.9388 20" stroke="black" stroke-opacity="0.5" stroke-width="1.5"/>
<path d="M28.7344 14.75H28.7519" stroke="black" stroke-opacity="0.5" stroke-width="2" stroke-linecap="round" stroke-linejoin="round"/>
</svg>
